<?xml version="1.0" encoding="UTF-8" standalone="no"?>
<!-- Created with Inkscape (http://www.inkscape.org/) -->

<svg
   xmlns:dc="http://purl.org/dc/elements/1.1/"
   xmlns:cc="http://creativecommons.org/ns#"
   xmlns:rdf="http://www.w3.org/1999/02/22-rdf-syntax-ns#"
   xmlns:svg="http://www.w3.org/2000/svg"
   xmlns="http://www.w3.org/2000/svg"
   xmlns:sodipodi="http://sodipodi.sourceforge.net/DTD/sodipodi-0.dtd"
   xmlns:inkscape="http://www.inkscape.org/namespaces/inkscape"
   width="194.25456mm"
   height="156.53531mm"
   viewBox="0 0 194.25456 156.53531"
   version="1.1"
   id="svg8"
   inkscape:version="0.92.3 (2405546, 2018-03-11)"
   sodipodi:docname="cyclic_toposort_graphs.svg">
  <defs
     id="defs2" />
  <sodipodi:namedview
     id="base"
     pagecolor="#ffffff"
     bordercolor="#666666"
     borderopacity="1.0"
     inkscape:pageopacity="0.0"
     inkscape:pageshadow="2"
     inkscape:zoom="0.7"
     inkscape:cx="429.96786"
     inkscape:cy="223.48985"
     inkscape:document-units="mm"
     inkscape:current-layer="layer1"
     showgrid="false"
     inkscape:window-width="956"
     inkscape:window-height="1041"
     inkscape:window-x="960"
     inkscape:window-y="18"
     inkscape:window-maximized="0" />
  <metadata
     id="metadata5">
    <rdf:RDF>
      <cc:Work
         rdf:about="">
        <dc:format>image/svg+xml</dc:format>
        <dc:type
           rdf:resource="http://purl.org/dc/dcmitype/StillImage" />
        <dc:title></dc:title>
      </cc:Work>
    </rdf:RDF>
  </metadata>
  <g
     inkscape:label="Layer 1"
     inkscape:groupmode="layer"
     id="layer1"
     transform="translate(-8.6682498,-63.965074)">
    <g
       transform="matrix(0.35277778,0,0,0.35277778,118.25614,197.97038)"
       class="graph"
       id="graph0">
      <title
         id="title971">%3</title>
      <path
         style="fill:#ffffff"
         d="M -4,-256 H 240 V 4 H -4 Z"
         id="polygon973" />
      <!-- 1 -->
      <g
         class="node"
         id="node1">
        <title
           id="title975">1</title>
        <path
           style="fill:none;stroke:#000000"
           d="m 81,-234 a 27,18 0 0 1 -27,18 27,18 0 0 1 -27,-18 27,18 0 0 1 27,-18 27,18 0 0 1 27,18 z"
           id="ellipse977" />
        <g
           aria-label="1"
           style="font-size:14px;font-family:Times, serif;text-anchor:middle;fill:#000000"
           id="text979">
          <path
             d="m 56.016,-230.3 v -0.21 c -1.106,-0.014 -1.33,-0.154 -1.33,-0.826 v -8.4 l -0.112,-0.028 -2.52,1.274 v 0.196 c 0.168,-0.07 0.322,-0.126 0.378,-0.154 0.252,-0.098 0.49,-0.154 0.63,-0.154 0.294,0 0.42,0.21 0.42,0.658 v 6.342 c 0,0.462 -0.112,0.784 -0.336,0.91 -0.21,0.126 -0.406,0.168 -0.994,0.182 v 0.21 z"
             style="font-size:14px;font-family:Times, serif;text-anchor:middle;fill:#000000"
             id="path2023" />
        </g>
      </g>
      <!-- 2 -->
      <g
         class="node"
         id="node2">
        <title
           id="title982">2</title>
        <path
           style="fill:none;stroke:#000000"
           d="m 54,-162 a 27,18 0 0 1 -27,18 27,18 0 0 1 -27,-18 27,18 0 0 1 27,-18 27,18 0 0 1 27,18 z"
           id="ellipse984" />
        <g
           aria-label="2"
           style="font-size:14px;font-family:Times, serif;text-anchor:middle;fill:#000000"
           id="text986">
          <path
             d="m 30.15,-160.218 -0.182,-0.07 c -0.518,0.798 -0.7,0.924 -1.33,0.924 h -3.346 l 2.352,-2.464 c 1.246,-1.302 1.792,-2.366 1.792,-3.458 0,-1.4 -1.134,-2.478 -2.59,-2.478 -0.77,0 -1.498,0.308 -2.016,0.868 -0.448,0.476 -0.658,0.924 -0.896,1.918 l 0.294,0.07 c 0.56,-1.372 1.064,-1.82 2.03,-1.82 1.176,0 1.974,0.798 1.974,1.974 0,1.092 -0.644,2.394 -1.82,3.64 l -2.492,2.646 v 0.168 h 5.46 z"
             style="font-size:14px;font-family:Times, serif;text-anchor:middle;fill:#000000"
             id="path2027" />
        </g>
      </g>
      <!-- 1&#45;&gt;2 -->
      <g
         class="edge"
         id="edge1">
        <title
           id="title989">1-&gt;2</title>
        <path
           id="path991"
           d="m 47.3258,-216.2022 c -3.0734,8.1958 -6.7874,18.0998 -10.1953,27.1877"
           inkscape:connector-curvature="0"
           style="fill:none;stroke:#000000" />
        <path
           style="fill:#000000;stroke:#000000"
           d="m 33.8315,-190.1853 6.5543,2.4579 -6.7884,8.1344 z"
           id="polygon993" />
      </g>
      <!-- 3 -->
      <g
         class="node"
         id="node3">
        <title
           id="title996">3</title>
        <path
           style="fill:none;stroke:#000000"
           d="m 109,-90 a 27,18 0 0 1 -27,18 27,18 0 0 1 -27,-18 27,18 0 0 1 27,-18 27,18 0 0 1 27,18 z"
           id="ellipse998" />
        <g
           aria-label="3"
           style="font-size:14px;font-family:Times, serif;text-anchor:middle;fill:#000000"
           id="text1000">
          <path
             d="m 84.548,-89.366003 c 0,-0.714 -0.224,-1.372 -0.63,-1.806 -0.28,-0.308 -0.546,-0.476 -1.162,-0.742 0.966,-0.658 1.316,-1.176 1.316,-1.932 0,-1.134 -0.896,-1.918 -2.184,-1.918 -0.7,0 -1.316,0.238 -1.82,0.686 -0.42,0.378 -0.63,0.742 -0.938,1.582 l 0.21,0.056 c 0.574,-1.022 1.204,-1.484 2.086,-1.484 0.91,0 1.54,0.616 1.54,1.498 0,0.504 -0.21,1.008 -0.56,1.358 -0.42,0.42 -0.812,0.63 -1.764,0.966 v 0.182 c 0.826,0 1.148,0.028 1.484,0.154 0.868,0.308 1.414,1.106 1.414,2.072 0,1.176 -0.798,2.086 -1.834,2.086 -0.378,0 -0.658,-0.098 -1.176,-0.434 -0.42,-0.252 -0.658,-0.35 -0.896,-0.35 -0.322,0 -0.532,0.196 -0.532,0.49 0,0.49 0.602,0.798 1.582,0.798 1.078,0 2.184,-0.364 2.842,-0.938 0.658,-0.574 1.022,-1.386 1.022,-2.324 z"
             style="font-size:14px;font-family:Times, serif;text-anchor:middle;fill:#000000"
             id="path2032" />
        </g>
      </g>
      <!-- 1&#45;&gt;3 -->
      <g
         class="edge"
         id="edge2">
        <title
           id="title1003">1-&gt;3</title>
        <path
           id="path1005"
           d="m 57.4896,-216.0535 c 4.7787,24.5761 13.4075,68.9527 19.047,97.9561"
           inkscape:connector-curvature="0"
           style="fill:none;stroke:#000000" />
        <path
           style="fill:#000000;stroke:#000000"
           d="m 73.122,-117.3208 6.8713,-1.3361 -1.5269,10.4842 z"
           id="polygon1007" />
      </g>
      <!-- 2&#45;&gt;3 -->
      <g
         class="edge"
         id="edge5">
        <title
           id="title1010">2-&gt;3</title>
        <path
           id="path1012"
           d="m 39.4804,-145.6621 c 7.032,9.2057 15.9543,20.8857 23.8079,31.1668"
           inkscape:connector-curvature="0"
           style="fill:none;stroke:#000000" />
        <path
           style="fill:#000000;stroke:#000000"
           d="m 60.7172,-112.0953 5.5628,-4.2493 3.289,10.0713 z"
           id="polygon1014" />
      </g>
      <!-- 4 -->
      <g
         class="node"
         id="node7">
        <title
           id="title1017">4</title>
        <path
           style="fill:none;stroke:#000000"
           d="M 81,-18 A 27,18 0 0 1 54,0 27,18 0 0 1 27,-18 27,18 0 0 1 54,-36 27,18 0 0 1 81,-18 Z"
           id="ellipse1019" />
        <g
           aria-label="4"
           style="font-size:14px;font-family:Times, serif;text-anchor:middle;fill:#000000"
           id="text1021">
          <path
             d="m 57.108,-16.638 v -0.896 H 55.68 v -6.23 h -0.616 l -4.396,6.23 v 0.896 h 3.934 v 2.338 h 1.078 v -2.338 z m -2.52,-0.896 h -3.36 l 3.36,-4.802 z"
             style="font-size:14px;font-family:Times, serif;text-anchor:middle;fill:#000000"
             id="path2038" />
        </g>
      </g>
      <!-- 2&#45;&gt;4 -->
      <g
         class="edge"
         id="edge7">
        <title
           id="title1024">2-&gt;4</title>
        <path
           id="path1026"
           d="m 30.365,-144.0535 c 4.608,24.5761 12.9286,68.9527 18.3667,97.9561"
           inkscape:connector-curvature="0"
           style="fill:none;stroke:#000000" />
        <path
           style="fill:#000000;stroke:#000000"
           d="m 45.3096,-45.3564 6.8801,-1.2901 -1.5971,10.4738 z"
           id="polygon1028" />
      </g>
      <!-- 3&#45;&gt;4 -->
      <g
         class="edge"
         id="edge6">
        <title
           id="title1031">3-&gt;4</title>
        <path
           id="path1033"
           d="m 75.222,-72.5708 c -3.2092,8.2521 -7.1155,18.297 -10.6978,27.5085"
           inkscape:connector-curvature="0"
           style="fill:none;stroke:#000000" />
        <path
           style="fill:#000000;stroke:#000000"
           d="m 61.1752,-46.1069 6.524,2.5372 -6.8866,8.0515 z"
           id="polygon1035" />
      </g>
      <!-- 5 -->
      <g
         class="node"
         id="node4">
        <title
           id="title1038">5</title>
        <path
           style="fill:none;stroke:#000000"
           d="m 164,-162 a 27,18 0 0 1 -27,18 27,18 0 0 1 -27,-18 27,18 0 0 1 27,-18 27,18 0 0 1 27,18 z"
           id="ellipse1040" />
        <g
           aria-label="5"
           style="font-size:14px;font-family:Times, serif;text-anchor:middle;fill:#000000"
           id="text1042">
          <path
             d="m 139.632,-167.834 -0.126,-0.098 c -0.21,0.294 -0.35,0.364 -0.644,0.364 h -2.926 l -1.526,3.318 c -0.014,0.028 -0.014,0.07 -0.014,0.07 0,0.07 0.056,0.112 0.168,0.112 0.448,0 1.008,0.098 1.582,0.28 1.61,0.518 2.352,1.386 2.352,2.772 0,1.344 -0.854,2.394 -1.946,2.394 -0.28,0 -0.518,-0.098 -0.938,-0.406 -0.448,-0.322 -0.77,-0.462 -1.064,-0.462 -0.406,0 -0.602,0.168 -0.602,0.518 0,0.532 0.658,0.868 1.708,0.868 1.176,0 2.184,-0.378 2.884,-1.092 0.644,-0.63 0.938,-1.428 0.938,-2.492 0,-1.008 -0.266,-1.652 -0.966,-2.352 -0.616,-0.616 -1.414,-0.938 -3.066,-1.232 l 0.588,-1.19 h 2.744 c 0.224,0 0.28,-0.028 0.322,-0.126 z"
             style="font-size:14px;font-family:Times, serif;text-anchor:middle;fill:#000000"
             id="path2044" />
        </g>
      </g>
      <!-- 5&#45;&gt;3 -->
      <g
         class="edge"
         id="edge8">
        <title
           id="title1045">5-&gt;3</title>
        <path
           id="path1047"
           d="m 124.5196,-145.6621 c -7.032,9.2057 -15.9543,20.8857 -23.8079,31.1668"
           inkscape:connector-curvature="0"
           style="fill:none;stroke:#000000" />
        <path
           style="fill:#000000;stroke:#000000"
           d="m 97.72,-116.3446 5.5628,4.2493 -8.8518,5.822 z"
           id="polygon1049" />
      </g>
      <!-- 6 -->
      <g
         class="node"
         id="node5">
        <title
           id="title1052">6</title>
        <path
           style="fill:none;stroke:#000000"
           d="m 208,-90 a 27,18 0 0 1 -27,18 27,18 0 0 1 -27,-18 27,18 0 0 1 27,-18 27,18 0 0 1 27,18 z"
           id="ellipse1054" />
        <g
           aria-label="6"
           style="font-size:14px;font-family:Times, serif;text-anchor:middle;fill:#000000"
           id="text1056">
          <path
             d="m 184.052,-89.366003 c 0,-1.792 -1.022,-2.926 -2.632,-2.926 -0.616,0 -0.91,0.098 -1.792,0.63 0.378,-2.114 1.946,-3.626 4.144,-3.99 l -0.028,-0.224 c -1.596,0.14 -2.408,0.406 -3.43,1.12 -1.512,1.078 -2.338,2.674 -2.338,4.55 0,1.218 0.378,2.45 0.98,3.15 0.532,0.616 1.288,0.952 2.156,0.952 1.736,0 2.94,-1.33 2.94,-3.262 z m -1.26,0.476 c 0,1.54 -0.546,2.394 -1.526,2.394 -1.232,0 -1.988,-1.316 -1.988,-3.486 0,-0.714 0.112,-1.106 0.392,-1.316 0.294,-0.224 0.728,-0.35 1.218,-0.35 1.204,0 1.904,1.008 1.904,2.758 z"
             style="font-size:14px;font-family:Times, serif;text-anchor:middle;fill:#000000"
             id="path2049" />
        </g>
      </g>
      <!-- 5&#45;&gt;6 -->
      <g
         class="edge"
         id="edge3">
        <title
           id="title1059">5-&gt;6</title>
        <path
           id="path1061"
           d="m 147.2051,-145.3008 c 5.3645,8.7784 12.0575,19.7305 18.0686,29.5669"
           inkscape:connector-curvature="0"
           style="fill:none;stroke:#000000" />
        <path
           style="fill:#000000;stroke:#000000"
           d="m 162.3437,-113.8164 5.973,-3.6502 2.228,10.358 z"
           id="polygon1063" />
      </g>
      <!-- 7 -->
      <g
         class="node"
         id="node6">
        <title
           id="title1066">7</title>
        <path
           style="fill:none;stroke:#000000"
           d="m 236,-162 a 27,18 0 0 1 -27,18 27,18 0 0 1 -27,-18 27,18 0 0 1 27,-18 27,18 0 0 1 27,18 z"
           id="ellipse1068" />
        <g
           aria-label="7"
           style="font-size:14px;font-family:Times, serif;text-anchor:middle;fill:#000000"
           id="text1070">
          <path
             d="m 211.786,-167.344 v -0.224 h -5.18 l -0.826,2.058 0.238,0.112 c 0.602,-0.952 0.854,-1.134 1.624,-1.134 h 3.038 l -2.772,8.344 h 0.91 z"
             style="font-size:14px;font-family:Times, serif;text-anchor:middle;fill:#000000"
             id="path2054" />
        </g>
      </g>
      <!-- 7&#45;&gt;6 -->
      <g
         class="edge"
         id="edge4">
        <title
           id="title1073">7-&gt;6</title>
        <path
           id="path1075"
           d="m 202.222,-144.5708 c -3.2092,8.2521 -7.1155,18.297 -10.6978,27.5085"
           inkscape:connector-curvature="0"
           style="fill:none;stroke:#000000" />
        <path
           style="fill:#000000;stroke:#000000"
           d="m 188.1752,-118.1069 6.524,2.5372 -6.8866,8.0515 z"
           id="polygon1077" />
      </g>
    </g>
    <g
       transform="matrix(0.35277779,0,0,0.35277779,10.079361,205.07619)"
       class="graph"
       id="graph0-0">
      <title
         id="title1745">%3</title>
      <path
         style="fill:#ffffff"
         d="M -4,4 V -400 H 261 V 4 Z"
         id="polygon1747" />
      <!-- 1 -->
      <g
         class="node"
         id="node1-6">
        <title
           id="title1749">1</title>
        <path
           style="fill:none;stroke:#000000"
           d="m 128,-306 a 27,18 0 0 1 -27,18 27,18 0 0 1 -27,-18 27,18 0 0 1 27,-18 27,18 0 0 1 27,18 z"
           id="ellipse1751" />
        <g
           aria-label="1"
           style="font-size:14px;font-family:Times, serif;text-anchor:middle;fill:#000000"
           id="text1753">
          <path
             d="m 103.016,-302.29999 v -0.21 c -1.106,-0.014 -1.33,-0.154 -1.33,-0.826 v -8.4 l -0.112,-0.028 -2.52,1.274 v 0.196 c 0.168,-0.07 0.322,-0.126 0.378,-0.154 0.252,-0.098 0.49,-0.154 0.63,-0.154 0.294,0 0.42,0.21 0.42,0.658 v 6.342 c 0,0.462 -0.112,0.784 -0.336,0.91 -0.21,0.126 -0.406,0.168 -0.994,0.182 v 0.21 z"
             style="font-size:14px;font-family:Times, serif;text-anchor:middle;fill:#000000"
             id="path2060" />
        </g>
      </g>
      <!-- 2 -->
      <g
         class="node"
         id="node2-2">
        <title
           id="title1756">2</title>
        <path
           style="fill:none;stroke:#000000"
           d="m 109,-234 a 27,18 0 0 1 -27,18 27,18 0 0 1 -27,-18 27,18 0 0 1 27,-18 27,18 0 0 1 27,18 z"
           id="ellipse1758" />
        <g
           aria-label="2"
           style="font-size:14px;font-family:Times, serif;text-anchor:middle;fill:#000000"
           id="text1760">
          <path
             d="m 85.15,-232.218 -0.182,-0.07 c -0.518,0.798 -0.7,0.924 -1.33,0.924 h -3.346 l 2.352,-2.464 c 1.246,-1.302 1.792,-2.366 1.792,-3.458 0,-1.4 -1.134,-2.478 -2.59,-2.478 -0.77,0 -1.498,0.308 -2.016,0.868 -0.448,0.476 -0.658,0.924 -0.896,1.918 l 0.294,0.07 c 0.56,-1.372 1.064,-1.82 2.03,-1.82 1.176,0 1.974,0.798 1.974,1.974 0,1.092 -0.644,2.394 -1.82,3.64 l -2.492,2.646 v 0.168 h 5.46 z"
             style="font-size:14px;font-family:Times, serif;text-anchor:middle;fill:#000000"
             id="path2064" />
        </g>
      </g>
      <!-- 1&#45;&gt;2 -->
      <g
         class="edge"
         id="edge1-6">
        <title
           id="title1763">1-&gt;2</title>
        <path
           id="path1765"
           d="m 96.3034,-288.2022 c -2.101,7.9616 -4.6274,17.5351 -6.9684,26.4065"
           inkscape:connector-curvature="0"
           style="fill:none;stroke:#000000" />
        <path
           style="fill:#000000;stroke:#000000"
           d="m 92.6442,-260.6185 -5.9358,8.776 -0.8325,-10.5621 z"
           id="polygon1767" />
      </g>
      <!-- 3 -->
      <g
         class="node"
         id="node7-1">
        <title
           id="title1770">3</title>
        <path
           style="fill:none;stroke:#000000"
           d="m 109,-162 a 27,18 0 0 1 -27,18 27,18 0 0 1 -27,-18 27,18 0 0 1 27,-18 27,18 0 0 1 27,18 z"
           id="ellipse1772" />
        <g
           aria-label="3"
           style="font-size:14px;font-family:Times, serif;text-anchor:middle;fill:#000000"
           id="text1774">
          <path
             d="m 84.548,-161.366 c 0,-0.714 -0.224,-1.372 -0.63,-1.806 -0.28,-0.308 -0.546,-0.476 -1.162,-0.742 0.966,-0.658 1.316,-1.176 1.316,-1.932 0,-1.134 -0.896,-1.918 -2.184,-1.918 -0.7,0 -1.316,0.238 -1.82,0.686 -0.42,0.378 -0.63,0.742 -0.938,1.582 l 0.21,0.056 c 0.574,-1.022 1.204,-1.484 2.086,-1.484 0.91,0 1.54,0.616 1.54,1.498 0,0.504 -0.21,1.008 -0.56,1.358 -0.42,0.42 -0.812,0.63 -1.764,0.966 v 0.182 c 0.826,0 1.148,0.028 1.484,0.154 0.868,0.308 1.414,1.106 1.414,2.072 0,1.176 -0.798,2.086 -1.834,2.086 -0.378,0 -0.658,-0.098 -1.176,-0.434 -0.42,-0.252 -0.658,-0.35 -0.896,-0.35 -0.322,0 -0.532,0.196 -0.532,0.49 0,0.49 0.602,0.798 1.582,0.798 1.078,0 2.184,-0.364 2.842,-0.938 0.658,-0.574 1.022,-1.386 1.022,-2.324 z"
             style="font-size:14px;font-family:Times, serif;text-anchor:middle;fill:#000000"
             id="path2069" />
        </g>
      </g>
      <!-- 2&#45;&gt;3 -->
      <g
         class="edge"
         id="edge7-8">
        <title
           id="title1777">2-&gt;3</title>
        <path
           id="path1779"
           d="m 82,-215.8314 c 0,7.7004 0,16.8571 0,25.4148"
           inkscape:connector-curvature="0"
           style="fill:none;stroke:#000000" />
        <path
           style="fill:#000000;stroke:#000000"
           d="m 85.5001,-190.4132 -3.5001,9.9999 -3.4999,-10 z"
           id="polygon1781" />
      </g>
      <!-- 4 -->
      <g
         class="node"
         id="node3-7">
        <title
           id="title1784">4</title>
        <path
           style="fill:none;stroke:#000000"
           d="m 128,-378 a 27,18 0 0 1 -27,18 27,18 0 0 1 -27,-18 27,18 0 0 1 27,-18 27,18 0 0 1 27,18 z"
           id="ellipse1786" />
        <g
           aria-label="4"
           style="font-size:14px;font-family:Times, serif;text-anchor:middle;fill:#000000"
           id="text1788">
          <path
             d="m 104.108,-376.63799 v -0.896 h -1.428 v -6.23 h -0.616 l -4.396,6.23 v 0.896 h 3.934 v 2.338 h 1.078 v -2.338 z m -2.52,-0.896 h -3.36 l 3.36,-4.802 z"
             style="font-size:14px;font-family:Times, serif;text-anchor:middle;fill:#000000"
             id="path2074" />
        </g>
      </g>
      <!-- 4&#45;&gt;1 -->
      <g
         class="edge"
         id="edge10">
        <title
           id="title1791">4-&gt;1</title>
        <path
           id="path1793"
           d="m 101,-359.8314 c 0,7.7004 0,16.8571 0,25.4148"
           inkscape:connector-curvature="0"
           style="fill:none;stroke:#000000" />
        <path
           style="fill:#000000;stroke:#000000"
           d="m 104.5001,-334.4132 -3.5001,9.9999 -3.4999,-10 z"
           id="polygon1795" />
      </g>
      <!-- 6 -->
      <g
         class="node"
         id="node4-9">
        <title
           id="title1798">6</title>
        <path
           style="fill:none;stroke:#000000"
           d="m 183,-90 a 27,18 0 0 1 -27,18 27,18 0 0 1 -27,-18 27,18 0 0 1 27,-18 27,18 0 0 1 27,18 z"
           id="ellipse1800" />
        <g
           aria-label="6"
           style="font-size:14px;font-family:Times, serif;text-anchor:middle;fill:#000000"
           id="text1802">
          <path
             d="m 159.052,-89.366003 c 0,-1.792 -1.022,-2.926 -2.632,-2.926 -0.616,0 -0.91,0.098 -1.792,0.63 0.378,-2.114 1.946,-3.626 4.144,-3.99 l -0.028,-0.224 c -1.596,0.14 -2.408,0.406 -3.43,1.12 -1.512,1.078 -2.338,2.674 -2.338,4.55 0,1.218 0.378,2.45 0.98,3.15 0.532,0.616 1.288,0.952 2.156,0.952 1.736,0 2.94,-1.33 2.94,-3.262 z m -1.26,0.476 c 0,1.54 -0.546,2.394 -1.526,2.394 -1.232,0 -1.988,-1.316 -1.988,-3.486 0,-0.714 0.112,-1.106 0.392,-1.316 0.294,-0.224 0.728,-0.35 1.218,-0.35 1.204,0 1.904,1.008 1.904,2.758 z"
             style="font-size:14px;font-family:Times, serif;text-anchor:middle;fill:#000000"
             id="path2079" />
        </g>
      </g>
      <!-- 4&#45;&gt;6 -->
      <g
         class="edge"
         id="edge2-2">
        <title
           id="title1805">4-&gt;6</title>
        <path
           id="path1807"
           d="m 114.5398,-362.089 c 7.9111,10.2111 17.3218,24.1319 22.4602,38.089 25.9529,70.4942 24.3848,160.7699 21.4708,205.8065"
           inkscape:connector-curvature="0"
           style="fill:none;stroke:#000000" />
        <path
           style="fill:#000000;stroke:#000000"
           d="m 161.9469,-117.7351 -4.2097,9.7226 -2.7722,-10.2257 z"
           id="polygon1809" />
      </g>
      <!-- 5 -->
      <g
         class="node"
         id="node5-0">
        <title
           id="title1812">5</title>
        <path
           style="fill:none;stroke:#000000"
           d="M 54,-90 A 27,18 0 0 1 27,-72 27,18 0 0 1 0,-90 27,18 0 0 1 27,-108 27,18 0 0 1 54,-90 Z"
           id="ellipse1814" />
        <g
           aria-label="5"
           style="font-size:14px;font-family:Times, serif;text-anchor:middle;fill:#000000"
           id="text1816">
          <path
             d="m 29.632,-95.834003 -0.126,-0.098 c -0.21,0.294 -0.35,0.364 -0.644,0.364 h -2.926 l -1.526,3.318 c -0.014,0.028 -0.014,0.07 -0.014,0.07 0,0.07 0.056,0.112 0.168,0.112 0.448,0 1.008,0.098 1.582,0.28 1.61,0.518 2.352,1.386 2.352,2.772 0,1.344 -0.854,2.394 -1.946,2.394 -0.28,0 -0.518,-0.098 -0.938,-0.406 -0.448,-0.322 -0.77,-0.462 -1.064,-0.462 -0.406,0 -0.602,0.168 -0.602,0.518 0,0.532 0.658,0.868 1.708,0.868 1.176,0 2.184,-0.378 2.884,-1.092 0.644,-0.63 0.938,-1.428 0.938,-2.492 0,-1.008 -0.266,-1.652 -0.966,-2.352 -0.616,-0.616 -1.414,-0.938 -3.066,-1.232 l 0.588,-1.19 h 2.744 c 0.224,0 0.28,-0.028 0.322,-0.126 z"
             style="font-size:14px;font-family:Times, serif;text-anchor:middle;fill:#000000"
             id="path2084" />
        </g>
      </g>
      <!-- 4&#45;&gt;5 -->
      <g
         class="edge"
         id="edge3-2">
        <title
           id="title1819">4-&gt;5</title>
        <path
           id="path1821"
           d="M 88.1408,-361.8109 C 80.4859,-351.4951 71.1054,-337.562 65,-324 33.8617,-254.8316 27.8628,-163.9727 26.9451,-118.5055"
           inkscape:connector-curvature="0"
           style="fill:none;stroke:#000000" />
        <path
           style="fill:#000000;stroke:#000000"
           d="m 30.4412,-118.1755 -3.6307,9.9533 -3.3687,-10.045 z"
           id="polygon1823" />
      </g>
      <!-- 6&#45;&gt;1 -->
      <g
         class="edge"
         id="edge4-3">
        <title
           id="title1826">6-&gt;1</title>
        <path
           id="path1828"
           d="M 152.2182,-108.0902 C 145.8326,-138.143 132.2128,-200.1814 118,-252 c -2.3658,-8.6255 -5.1977,-17.9421 -7.8655,-26.3686"
           inkscape:connector-curvature="0"
           style="fill:none;stroke:#000000" />
        <path
           style="fill:#000000;stroke:#000000"
           d="m 106.7348,-277.508 0.2694,-10.5914 6.3943,8.4477 z"
           id="polygon1830" />
      </g>
      <!-- 5&#45;&gt;2 -->
      <g
         class="edge"
         id="edge6-7">
        <title
           id="title1833">5-&gt;2</title>
        <path
           id="path1835"
           d="M 28.7905,-108.1917 C 31.0888,-126.8125 36.0345,-156.2992 46,-180 c 4.3236,-10.2827 10.687,-20.6881 16.866,-29.5836"
           inkscape:connector-curvature="0"
           style="fill:none;stroke:#000000" />
        <path
           style="fill:#000000;stroke:#000000"
           d="m 60.2002,-211.8699 8.7009,-6.0454 -3.0318,10.1518 z"
           id="polygon1837" />
      </g>
      <!-- 7 -->
      <g
         class="node"
         id="node6-5">
        <title
           id="title1840">7</title>
        <path
           style="fill:none;stroke:#000000"
           d="M 54,-18 A 27,18 0 0 1 27,0 27,18 0 0 1 0,-18 27,18 0 0 1 27,-36 27,18 0 0 1 54,-18 Z"
           id="ellipse1842" />
        <g
           aria-label="7"
           style="font-size:14px;font-family:Times, serif;text-anchor:middle;fill:#000000"
           id="text1844">
          <path
             d="m 29.786,-23.344 v -0.224 h -5.18 l -0.826,2.058 0.238,0.112 c 0.602,-0.952 0.854,-1.134 1.624,-1.134 h 3.038 l -2.772,8.344 h 0.91 z"
             style="font-size:14px;font-family:Times, serif;text-anchor:middle;fill:#000000"
             id="path2091" />
        </g>
      </g>
      <!-- 5&#45;&gt;7 -->
      <g
         class="edge"
         id="edge5-9">
        <title
           id="title1847">5-&gt;7</title>
        <path
           id="path1849"
           d="m 27,-71.8314 c 0,7.7004 0,16.8571 0,25.4148"
           inkscape:connector-curvature="0"
           style="fill:none;stroke:#000000" />
        <path
           style="fill:#000000;stroke:#000000"
           d="M 30.5001,-46.4132 27,-36.4133 l -3.4999,-10 z"
           id="polygon1851" />
      </g>
      <!-- 3&#45;&gt;6 -->
      <g
         class="edge"
         id="edge8-2">
        <title
           id="title1854">3-&gt;6</title>
        <path
           id="path1856"
           d="m 97.3328,-147.0816 c 10.4182,10.1366 24.375,23.7162 36.0619,35.0872"
           inkscape:connector-curvature="0"
           style="fill:none;stroke:#000000" />
        <path
           style="fill:#000000;stroke:#000000"
           d="m 135.9603,-114.3815 4.7265,9.4822 -9.608,-4.4651 z"
           id="polygon1858" />
      </g>
      <!-- 3&#45;&gt;5 -->
      <g
         class="edge"
         id="edge11">
        <title
           id="title1861">3-&gt;5</title>
        <path
           id="path1863"
           d="m 69.5196,-145.6621 c -7.032,9.2057 -15.9543,20.8857 -23.8079,31.1668"
           inkscape:connector-curvature="0"
           style="fill:none;stroke:#000000" />
        <path
           style="fill:#000000;stroke:#000000"
           d="m 48.2828,-112.0953 -8.8518,5.822 3.289,-10.0713 z"
           id="polygon1865" />
      </g>
      <!-- 8 -->
      <g
         class="node"
         id="node8">
        <title
           id="title1868">8</title>
        <path
           style="fill:none;stroke:#000000"
           d="m 257,-162 a 27,18 0 0 1 -27,18 27,18 0 0 1 -27,-18 27,18 0 0 1 27,-18 27,18 0 0 1 27,18 z"
           id="ellipse1870" />
        <g
           aria-label="8"
           style="font-size:14px;font-family:Times, serif;text-anchor:middle;fill:#000000"
           id="text1872">
          <path
             d="m 232.73,-160.47 c 0,-1.078 -0.476,-1.764 -2.17,-3.024 1.386,-0.742 1.876,-1.33 1.876,-2.282 0,-1.148 -1.008,-1.988 -2.408,-1.988 -1.526,0 -2.66,0.938 -2.66,2.212 0,0.91 0.266,1.316 1.736,2.604 -1.512,1.148 -1.82,1.582 -1.82,2.534 0,1.358 1.106,2.31 2.688,2.31 1.68,0 2.758,-0.924 2.758,-2.366 z m -1.064,0.434 c 0,0.91 -0.63,1.54 -1.54,1.54 -1.064,0 -1.778,-0.812 -1.778,-2.03 0,-0.896 0.308,-1.484 1.12,-2.142 l 0.84,0.616 c 1.022,0.728 1.358,1.232 1.358,2.016 z m -0.196,-5.754 c 0,0.798 -0.392,1.428 -1.19,1.96 -0.07,0.042 -0.07,0.042 -0.126,0.084 -1.246,-0.812 -1.75,-1.456 -1.75,-2.24 0,-0.812 0.63,-1.386 1.512,-1.386 0.952,0 1.554,0.616 1.554,1.582 z"
             style="font-size:14px;font-family:Times, serif;text-anchor:middle;fill:#000000"
             id="path2098" />
        </g>
      </g>
      <!-- 8&#45;&gt;6 -->
      <g
         class="edge"
         id="edge9">
        <title
           id="title1875">8-&gt;6</title>
        <path
           id="path1877"
           d="m 214.6672,-147.0816 c -10.4182,10.1366 -24.375,23.7162 -36.0619,35.0872"
           inkscape:connector-curvature="0"
           style="fill:none;stroke:#000000" />
        <path
           style="fill:#000000;stroke:#000000"
           d="m 180.9212,-109.3644 -9.608,4.4651 4.7265,-9.4822 z"
           id="polygon1879" />
      </g>
    </g>
    <g
       aria-label="Cyclic Graph"
       transform="matrix(0.26458333,0,0,0.26458333,6.0476191,196.9256)"
       style="font-style:normal;font-weight:normal;font-size:40px;line-height:1.25;font-family:sans-serif;letter-spacing:0px;word-spacing:0px;fill:#000000;fill-opacity:1;stroke:none"
       id="flowRoot1970">
      <path
         d="m 90.009766,80.914062 q -1.65625,0.859375 -3.453125,1.296875 -1.796875,0.4375 -3.75,0.4375 -5.828125,0 -9.234375,-3.25 -3.40625,-3.265625 -3.40625,-8.84375 0,-5.59375 3.40625,-8.84375 3.40625,-3.265625 9.234375,-3.265625 1.953125,0 3.75,0.4375 1.796875,0.4375 3.453125,1.296875 v 4.828125 q -1.671875,-1.140625 -3.296875,-1.671875 -1.625,-0.53125 -3.421875,-0.53125 -3.21875,0 -5.0625,2.0625 -1.84375,2.0625 -1.84375,5.6875 0,3.609375 1.84375,5.671875 1.84375,2.0625 5.0625,2.0625 1.796875,0 3.421875,-0.53125 1.625,-0.53125 3.296875,-1.671875 z"
         style="font-style:normal;font-variant:normal;font-weight:bold;font-stretch:normal;font-size:32px;font-family:sans-serif;-inkscape-font-specification:'sans-serif Bold'"
         id="path2102" />
      <path
         d="m 92.462891,64.695312 h 5.59375 l 4.703129,11.875 4,-11.875 h 5.59375 l -7.35938,19.15625 q -1.10937,2.921875 -2.59375,4.078125 -1.46875,1.171875 -3.890624,1.171875 h -3.234375 v -3.671875 h 1.75 q 1.421875,0 2.0625,-0.453125 0.65625,-0.453125 1.015629,-1.625 l 0.15625,-0.484375 z"
         style="font-style:normal;font-variant:normal;font-weight:bold;font-stretch:normal;font-size:32px;font-family:sans-serif;-inkscape-font-specification:'sans-serif Bold'"
         id="path2104" />
      <path
         d="m 129.77539,65.242187 v 4.5625 q -1.14062,-0.78125 -2.29687,-1.15625 -1.14063,-0.375 -2.375,-0.375 -2.34375,0 -3.65625,1.375 -1.29688,1.359375 -1.29688,3.8125 0,2.453125 1.29688,3.828125 1.3125,1.359375 3.65625,1.359375 1.3125,0 2.48437,-0.390625 1.1875,-0.390625 2.1875,-1.15625 v 4.578125 q -1.3125,0.484375 -2.67187,0.71875 -1.34375,0.25 -2.70313,0.25 -4.73437,0 -7.40625,-2.421875 -2.67187,-2.4375 -2.67187,-6.765625 0,-4.328125 2.67187,-6.75 2.67188,-2.4375 7.40625,-2.4375 1.375,0 2.70313,0.25 1.34375,0.234375 2.67187,0.71875 z"
         style="font-style:normal;font-variant:normal;font-weight:bold;font-stretch:normal;font-size:32px;font-family:sans-serif;-inkscape-font-specification:'sans-serif Bold'"
         id="path2106" />
      <path
         d="m 134.63477,57.882812 h 5.59375 v 24.3125 h -5.59375 z"
         style="font-style:normal;font-variant:normal;font-weight:bold;font-stretch:normal;font-size:32px;font-family:sans-serif;-inkscape-font-specification:'sans-serif Bold'"
         id="path2108" />
      <path
         d="m 145.63477,64.695312 h 5.59375 v 17.5 h -5.59375 z m 0,-6.8125 h 5.59375 v 4.5625 h -5.59375 z"
         style="font-style:normal;font-variant:normal;font-weight:bold;font-stretch:normal;font-size:32px;font-family:sans-serif;-inkscape-font-specification:'sans-serif Bold'"
         id="path2110" />
      <path
         d="m 170.77539,65.242187 v 4.5625 q -1.14062,-0.78125 -2.29687,-1.15625 -1.14063,-0.375 -2.375,-0.375 -2.34375,0 -3.65625,1.375 -1.29688,1.359375 -1.29688,3.8125 0,2.453125 1.29688,3.828125 1.3125,1.359375 3.65625,1.359375 1.3125,0 2.48437,-0.390625 1.1875,-0.390625 2.1875,-1.15625 v 4.578125 q -1.3125,0.484375 -2.67187,0.71875 -1.34375,0.25 -2.70313,0.25 -4.73437,0 -7.40625,-2.421875 -2.67187,-2.4375 -2.67187,-6.765625 0,-4.328125 2.67187,-6.75 2.67188,-2.4375 7.40625,-2.4375 1.375,0 2.70313,0.25 1.34375,0.234375 2.67187,0.71875 z"
         style="font-style:normal;font-variant:normal;font-weight:bold;font-stretch:normal;font-size:32px;font-family:sans-serif;-inkscape-font-specification:'sans-serif Bold'"
         id="path2112" />
      <path
         d="m 207.97852,80.460937 q -2.25,1.09375 -4.67188,1.640625 -2.42187,0.546875 -5,0.546875 -5.82812,0 -9.23437,-3.25 -3.40625,-3.265625 -3.40625,-8.84375 0,-5.640625 3.46875,-8.875 3.46875,-3.234375 9.5,-3.234375 2.32812,0 4.45312,0.4375 2.14063,0.4375 4.03125,1.296875 v 4.828125 q -1.95312,-1.109375 -3.89062,-1.65625 -1.92188,-0.546875 -3.85938,-0.546875 -3.59375,0 -5.54687,2.015625 -1.9375,2 -1.9375,5.734375 0,3.703125 1.875,5.71875 1.875,2.015625 5.32812,2.015625 0.9375,0 1.73438,-0.109375 0.8125,-0.125 1.45312,-0.375 v -4.53125 h -3.67187 v -4.03125 h 9.375 z"
         style="font-style:normal;font-variant:normal;font-weight:bold;font-stretch:normal;font-size:32px;font-family:sans-serif;-inkscape-font-specification:'sans-serif Bold'"
         id="path2114" />
      <path
         d="m 226.00977,69.460937 q -0.73438,-0.34375 -1.46875,-0.5 -0.71875,-0.171875 -1.45313,-0.171875 -2.15625,0 -3.32812,1.390625 -1.15625,1.375 -1.15625,3.953125 v 8.0625 h -5.59375 v -17.5 h 5.59375 v 2.875 q 1.07812,-1.71875 2.46875,-2.5 1.40625,-0.796875 3.35937,-0.796875 0.28125,0 0.60938,0.03125 0.32812,0.01563 0.95312,0.09375 z"
         style="font-style:normal;font-variant:normal;font-weight:bold;font-stretch:normal;font-size:32px;font-family:sans-serif;-inkscape-font-specification:'sans-serif Bold'"
         id="path2116" />
      <path
         d="m 236.66602,74.320312 q -1.75,0 -2.64063,0.59375 -0.875,0.59375 -0.875,1.75 0,1.0625 0.70313,1.671875 0.71875,0.59375 1.98437,0.59375 1.57813,0 2.65625,-1.125 1.07813,-1.140625 1.07813,-2.84375 v -0.640625 z m 8.54687,-2.109375 v 9.984375 h -5.64062 v -2.59375 q -1.125,1.59375 -2.53125,2.328125 -1.40625,0.71875 -3.42188,0.71875 -2.71875,0 -4.42187,-1.578125 -1.6875,-1.59375 -1.6875,-4.125 0,-3.078125 2.10937,-4.515625 2.125,-1.4375 6.65625,-1.4375 h 3.29688 v -0.4375 q 0,-1.328125 -1.04688,-1.9375 -1.04687,-0.625 -3.26562,-0.625 -1.79688,0 -3.34375,0.359375 -1.54688,0.359375 -2.875,1.078125 v -4.265625 q 1.79687,-0.4375 3.60937,-0.65625 1.8125,-0.234375 3.625,-0.234375 4.73438,0 6.82813,1.875 2.10937,1.859375 2.10937,6.0625 z"
         style="font-style:normal;font-variant:normal;font-weight:bold;font-stretch:normal;font-size:32px;font-family:sans-serif;-inkscape-font-specification:'sans-serif Bold'"
         id="path2118" />
      <path
         d="m 256.04102,79.664062 v 9.1875 h -5.59375 v -24.15625 h 5.59375 v 2.5625 q 1.15625,-1.53125 2.5625,-2.25 1.40625,-0.734375 3.23437,-0.734375 3.23438,0 5.3125,2.578125 2.07813,2.5625 2.07813,6.609375 0,4.046875 -2.07813,6.625 -2.07812,2.5625 -5.3125,2.5625 -1.82812,0 -3.23437,-0.71875 -1.40625,-0.734375 -2.5625,-2.265625 z m 3.71875,-11.328125 q -1.79688,0 -2.76563,1.328125 -0.95312,1.3125 -0.95312,3.796875 0,2.484375 0.95312,3.8125 0.96875,1.3125 2.76563,1.3125 1.79687,0 2.73437,-1.3125 0.95313,-1.3125 0.95313,-3.8125 0,-2.5 -0.95313,-3.8125 -0.9375,-1.3125 -2.73437,-1.3125 z"
         style="font-style:normal;font-variant:normal;font-weight:bold;font-stretch:normal;font-size:32px;font-family:sans-serif;-inkscape-font-specification:'sans-serif Bold'"
         id="path2120" />
      <path
         d="m 290.97852,71.539062 v 10.65625 h -5.625 v -1.734375 -6.390625 q 0,-2.296875 -0.10938,-3.15625 -0.0937,-0.859375 -0.34375,-1.265625 -0.32812,-0.546875 -0.89062,-0.84375 -0.5625,-0.3125 -1.28125,-0.3125 -1.75,0 -2.75,1.359375 -1,1.34375 -1,3.734375 v 8.609375 h -5.59375 v -24.3125 h 5.59375 v 9.375 q 1.26562,-1.53125 2.6875,-2.25 1.42187,-0.734375 3.14062,-0.734375 3.03125,0 4.59375,1.859375 1.57813,1.859375 1.57813,5.40625 z"
         style="font-style:normal;font-variant:normal;font-weight:bold;font-stretch:normal;font-size:32px;font-family:sans-serif;-inkscape-font-specification:'sans-serif Bold'"
         id="path2122" />
    </g>
    <g
       aria-label="Acyclic Graph"
       transform="matrix(0.26458333,0,0,0.26458333,112.78797,196.92521)"
       style="font-style:normal;font-weight:normal;font-size:40px;line-height:1.25;font-family:sans-serif;letter-spacing:0px;word-spacing:0px;fill:#000000;fill-opacity:1;stroke:none"
       id="flowRoot1970-2">
      <path
         d="m 85.666016,77.945312 h -9.40625 l -1.484375,4.25 h -6.046875 l 8.640625,-23.328125 h 7.171875 l 8.640625,23.328125 h -6.046875 z m -7.90625,-4.328125 h 6.390625 l -3.1875,-9.28125 z"
         style="font-style:normal;font-variant:normal;font-weight:bold;font-stretch:normal;font-size:32px;font-family:sans-serif;-inkscape-font-specification:'sans-serif Bold'"
         id="path2125" />
      <path
         d="m 110.15039,65.242187 v 4.5625 q -1.14062,-0.78125 -2.29687,-1.15625 -1.14063,-0.375 -2.375,-0.375 -2.34375,0 -3.65625,1.375 -1.29688,1.359375 -1.29688,3.8125 0,2.453125 1.29688,3.828125 1.3125,1.359375 3.65625,1.359375 1.3125,0 2.48437,-0.390625 1.1875,-0.390625 2.1875,-1.15625 v 4.578125 q -1.3125,0.484375 -2.67187,0.71875 -1.34375,0.25 -2.70313,0.25 -4.73437,0 -7.406249,-2.421875 -2.671875,-2.4375 -2.671875,-6.765625 0,-4.328125 2.671875,-6.75 2.671879,-2.4375 7.406249,-2.4375 1.375,0 2.70313,0.25 1.34375,0.234375 2.67187,0.71875 z"
         style="font-style:normal;font-variant:normal;font-weight:bold;font-stretch:normal;font-size:32px;font-family:sans-serif;-inkscape-font-specification:'sans-serif Bold'"
         id="path2127" />
      <path
         d="m 112.71289,64.695312 h 5.59375 l 4.70313,11.875 4,-11.875 h 5.59375 l -7.35938,19.15625 q -1.10937,2.921875 -2.59375,4.078125 -1.46875,1.171875 -3.89062,1.171875 h -3.23438 v -3.671875 h 1.75 q 1.42188,0 2.0625,-0.453125 0.65625,-0.453125 1.01563,-1.625 l 0.15625,-0.484375 z"
         style="font-style:normal;font-variant:normal;font-weight:bold;font-stretch:normal;font-size:32px;font-family:sans-serif;-inkscape-font-specification:'sans-serif Bold'"
         id="path2129" />
      <path
         d="m 150.02539,65.242187 v 4.5625 q -1.14062,-0.78125 -2.29687,-1.15625 -1.14063,-0.375 -2.375,-0.375 -2.34375,0 -3.65625,1.375 -1.29688,1.359375 -1.29688,3.8125 0,2.453125 1.29688,3.828125 1.3125,1.359375 3.65625,1.359375 1.3125,0 2.48437,-0.390625 1.1875,-0.390625 2.1875,-1.15625 v 4.578125 q -1.3125,0.484375 -2.67187,0.71875 -1.34375,0.25 -2.70313,0.25 -4.73437,0 -7.40625,-2.421875 -2.67187,-2.4375 -2.67187,-6.765625 0,-4.328125 2.67187,-6.75 2.67188,-2.4375 7.40625,-2.4375 1.375,0 2.70313,0.25 1.34375,0.234375 2.67187,0.71875 z"
         style="font-style:normal;font-variant:normal;font-weight:bold;font-stretch:normal;font-size:32px;font-family:sans-serif;-inkscape-font-specification:'sans-serif Bold'"
         id="path2131" />
      <path
         d="m 154.88477,57.882812 h 5.59375 v 24.3125 h -5.59375 z"
         style="font-style:normal;font-variant:normal;font-weight:bold;font-stretch:normal;font-size:32px;font-family:sans-serif;-inkscape-font-specification:'sans-serif Bold'"
         id="path2133" />
      <path
         d="m 165.88477,64.695312 h 5.59375 v 17.5 h -5.59375 z m 0,-6.8125 h 5.59375 v 4.5625 h -5.59375 z"
         style="font-style:normal;font-variant:normal;font-weight:bold;font-stretch:normal;font-size:32px;font-family:sans-serif;-inkscape-font-specification:'sans-serif Bold'"
         id="path2135" />
      <path
         d="m 191.02539,65.242187 v 4.5625 q -1.14062,-0.78125 -2.29687,-1.15625 -1.14063,-0.375 -2.375,-0.375 -2.34375,0 -3.65625,1.375 -1.29688,1.359375 -1.29688,3.8125 0,2.453125 1.29688,3.828125 1.3125,1.359375 3.65625,1.359375 1.3125,0 2.48437,-0.390625 1.1875,-0.390625 2.1875,-1.15625 v 4.578125 q -1.3125,0.484375 -2.67187,0.71875 -1.34375,0.25 -2.70313,0.25 -4.73437,0 -7.40625,-2.421875 -2.67187,-2.4375 -2.67187,-6.765625 0,-4.328125 2.67187,-6.75 2.67188,-2.4375 7.40625,-2.4375 1.375,0 2.70313,0.25 1.34375,0.234375 2.67187,0.71875 z"
         style="font-style:normal;font-variant:normal;font-weight:bold;font-stretch:normal;font-size:32px;font-family:sans-serif;-inkscape-font-specification:'sans-serif Bold'"
         id="path2137" />
      <path
         d="m 228.22852,80.460937 q -2.25,1.09375 -4.67188,1.640625 -2.42187,0.546875 -5,0.546875 -5.82812,0 -9.23437,-3.25 -3.40625,-3.265625 -3.40625,-8.84375 0,-5.640625 3.46875,-8.875 3.46875,-3.234375 9.5,-3.234375 2.32812,0 4.45312,0.4375 2.14063,0.4375 4.03125,1.296875 v 4.828125 q -1.95312,-1.109375 -3.89062,-1.65625 -1.92188,-0.546875 -3.85938,-0.546875 -3.59375,0 -5.54687,2.015625 -1.9375,2 -1.9375,5.734375 0,3.703125 1.875,5.71875 1.875,2.015625 5.32812,2.015625 0.9375,0 1.73438,-0.109375 0.8125,-0.125 1.45312,-0.375 v -4.53125 h -3.67187 v -4.03125 h 9.375 z"
         style="font-style:normal;font-variant:normal;font-weight:bold;font-stretch:normal;font-size:32px;font-family:sans-serif;-inkscape-font-specification:'sans-serif Bold'"
         id="path2139" />
      <path
         d="m 246.25977,69.460937 q -0.73438,-0.34375 -1.46875,-0.5 -0.71875,-0.171875 -1.45313,-0.171875 -2.15625,0 -3.32812,1.390625 -1.15625,1.375 -1.15625,3.953125 v 8.0625 h -5.59375 v -17.5 h 5.59375 v 2.875 q 1.07812,-1.71875 2.46875,-2.5 1.40625,-0.796875 3.35937,-0.796875 0.28125,0 0.60938,0.03125 0.32812,0.01563 0.95312,0.09375 z"
         style="font-style:normal;font-variant:normal;font-weight:bold;font-stretch:normal;font-size:32px;font-family:sans-serif;-inkscape-font-specification:'sans-serif Bold'"
         id="path2141" />
      <path
         d="m 256.91602,74.320312 q -1.75,0 -2.64063,0.59375 -0.875,0.59375 -0.875,1.75 0,1.0625 0.70313,1.671875 0.71875,0.59375 1.98437,0.59375 1.57813,0 2.65625,-1.125 1.07813,-1.140625 1.07813,-2.84375 v -0.640625 z m 8.54687,-2.109375 v 9.984375 h -5.64062 v -2.59375 q -1.125,1.59375 -2.53125,2.328125 -1.40625,0.71875 -3.42188,0.71875 -2.71875,0 -4.42187,-1.578125 -1.6875,-1.59375 -1.6875,-4.125 0,-3.078125 2.10937,-4.515625 2.125,-1.4375 6.65625,-1.4375 h 3.29688 v -0.4375 q 0,-1.328125 -1.04688,-1.9375 -1.04687,-0.625 -3.26562,-0.625 -1.79688,0 -3.34375,0.359375 -1.54688,0.359375 -2.875,1.078125 v -4.265625 q 1.79687,-0.4375 3.60937,-0.65625 1.8125,-0.234375 3.625,-0.234375 4.73438,0 6.82813,1.875 2.10937,1.859375 2.10937,6.0625 z"
         style="font-style:normal;font-variant:normal;font-weight:bold;font-stretch:normal;font-size:32px;font-family:sans-serif;-inkscape-font-specification:'sans-serif Bold'"
         id="path2143" />
      <path
         d="m 276.29102,79.664062 v 9.1875 h -5.59375 v -24.15625 h 5.59375 v 2.5625 q 1.15625,-1.53125 2.5625,-2.25 1.40625,-0.734375 3.23437,-0.734375 3.23438,0 5.3125,2.578125 2.07813,2.5625 2.07813,6.609375 0,4.046875 -2.07813,6.625 -2.07812,2.5625 -5.3125,2.5625 -1.82812,0 -3.23437,-0.71875 -1.40625,-0.734375 -2.5625,-2.265625 z m 3.71875,-11.328125 q -1.79688,0 -2.76563,1.328125 -0.95312,1.3125 -0.95312,3.796875 0,2.484375 0.95312,3.8125 0.96875,1.3125 2.76563,1.3125 1.79687,0 2.73437,-1.3125 0.95313,-1.3125 0.95313,-3.8125 0,-2.5 -0.95313,-3.8125 -0.9375,-1.3125 -2.73437,-1.3125 z"
         style="font-style:normal;font-variant:normal;font-weight:bold;font-stretch:normal;font-size:32px;font-family:sans-serif;-inkscape-font-specification:'sans-serif Bold'"
         id="path2145" />
      <path
         d="m 311.22852,71.539062 v 10.65625 h -5.625 v -1.734375 -6.390625 q 0,-2.296875 -0.10938,-3.15625 -0.0937,-0.859375 -0.34375,-1.265625 -0.32812,-0.546875 -0.89062,-0.84375 -0.5625,-0.3125 -1.28125,-0.3125 -1.75,0 -2.75,1.359375 -1,1.34375 -1,3.734375 v 8.609375 h -5.59375 v -24.3125 h 5.59375 v 9.375 q 1.26562,-1.53125 2.6875,-2.25 1.42187,-0.734375 3.14062,-0.734375 3.03125,0 4.59375,1.859375 1.57813,1.859375 1.57813,5.40625 z"
         style="font-style:normal;font-variant:normal;font-weight:bold;font-stretch:normal;font-size:32px;font-family:sans-serif;-inkscape-font-specification:'sans-serif Bold'"
         id="path2147" />
    </g>
  </g>
</svg>
